<?xml version="1.0" standalone="no"?>
<!DOCTYPE svg PUBLIC "-//W3C//DTD SVG 20010904//EN"
 "http://www.w3.org/TR/2001/REC-SVG-20010904/DTD/svg10.dtd">
<svg version="1.0" xmlns="http://www.w3.org/2000/svg"
 width="490.000000pt" height="386.000000pt" viewBox="0 0 490.000000 386.000000"
 preserveAspectRatio="xMidYMid meet">

<g transform="translate(0.000000,386.000000) scale(0.100000,-0.100000)"
fill="#b65a60" stroke="none">
<path d="M635 3851 c-158 -39 -300 -266 -404 -644 -47 -172 -70 -284 -115
-567 -189 -1169 -137 -2008 148 -2386 82 -110 179 -171 334 -210 487 -124 969
48 1413 502 204 209 270 327 228 406 -10 19 -12 19 -31 -13 -120 -198 -414
-363 -791 -445 -140 -30 -254 -34 -307 -11 -192 84 -288 334 -306 792 -20 490
103 1212 261 1541 52 107 89 144 144 144 161 0 459 -344 810 -935 132 -223
118 -203 131 -185 16 21 6 113 -20 190 -68 205 -309 615 -616 1047 -204 286
-445 561 -589 670 -107 82 -219 122 -290 104z"/>
<path d="M4167 3849 c-211 -51 -542 -407 -954 -1024 -230 -346 -388 -629 -443
-795 -26 -77 -36 -169 -20 -190 13 -18 -1 -38 131 185 214 360 399 617 558
776 155 154 249 193 321 133 35 -30 105 -169 145 -289 133 -402 217 -1056 187
-1457 -30 -399 -120 -618 -287 -697 -68 -32 -163 -31 -322 3 -376 82 -672 248
-791 445 -19 32 -21 32 -31 13 -45 -85 40 -224 280 -457 258 -250 505 -395
787 -460 220 -52 551 -26 713 55 273 137 416 498 449 1127 20 396 -16 868
-110 1448 -47 287 -59 349 -106 525 -125 468 -309 707 -507 659z"/>
</g>
</svg>
